<?xml version="1.0" encoding="utf-8"?>
<!-- Generator: Adobe Illustrator 24.0.2, SVG Export Plug-In . SVG Version: 6.00 Build 0)  -->
<svg version="1.1" id="Layer_1" xmlns="http://www.w3.org/2000/svg" xmlns:xlink="http://www.w3.org/1999/xlink" x="0px" y="0px"
	 viewBox="0 0 512 512" style="enable-background:new 0 0 512 512;" xml:space="preserve">
<style type="text/css">
	.st0{fill:#846549;}
</style>
<g>
	<g>
		<path class="st0" d="M351.7012,91.0479c-7.7524,43.5117,6.8635,86.9595-0.5317,130.3194
			c-6.682,39.176-30.825,75.2079-64.7006,96.025c-39.459,24.2479-86.8293,30.0015-126.3499,54.7603
			c-47.6322,29.8416-80.1407,70.489-106.6634,119.2842c-1.0841,1.9951-3.7693,0.5594-3.0928-1.4874
			c14.2784-43.1817,48.7101-80.2075,84.429-107.0879c18.2513-13.7354,38.1859-25.6314,59.4675-34.0128
			c21.3262-8.3988,43.7049-13.7768,65.0072-22.2448c47.5298-18.8939,82.6384-59.1285,89.6908-110.6447
			c5.6751-41.455-9.5459-84.1112,2.5132-124.9555C351.5123,90.8613,351.728,90.8966,351.7012,91.0479L351.7012,91.0479z"/>
	</g>
	<g>
		<g>
			<path class="st0" d="M367.0341,58.4689c-7.854,13.8046-12.8991,29.8177-16.744,45.1613
				c-0.2013,0.8029-1.3248,0.5698-1.2472-0.2374c1.4183-14.6992,7.7769-33.9127,17.5245-45.2314
				C366.7699,57.9264,367.1949,58.1868,367.0341,58.4689L367.0341,58.4689z"/>
		</g>
		<g>
			<path class="st0" d="M357.6508,75.89c3.0552-5.1429,6.3568-4.8989,11.6947-4.7899c5.6116,0.1147,10.3042,1.8691,15.7668-0.8128
				c4.8669-2.39,8.1863-7.2598,10.5768-12.0492c4.3217-8.6593,6.3859-20.229,2.2339-29.2046
				c-4.9187-10.6342-15.5444-14.5365-26.589-10.896c-13.1215,4.3249-20.1397,15.4198-19.545,29.2639
				c0.4306,10.0254,9.0274,18.7449,6.5123,28.6748c-0.1307,0.5152-0.7907,0.4348-0.8843-0.0536
				c-1.84-9.5708-8.6085-16.3741-9.2112-26.3582c-0.4856-8.0406,0.4696-16.8757,5.4922-23.4059
				c7.7623-10.0931,25.9247-16.2293,37.4813-9.1557c13.2253,8.0956,13.0552,25.5327,8.2028,38.3994
				c-2.5897,6.8682-6.2683,13.7467-13.1285,17.1145c-8.0185,3.9362-22.3961-2.3834-28.2141,3.53
				C357.8652,76.3243,357.5079,76.1311,357.6508,75.89L357.6508,75.89z"/>
		</g>
		<g>
			<path class="st0" d="M385.6144,17.8615c12.2274,4.4744,15.3817,14.7386,11.8635,26.9646
				c-1.9486,6.7732-6.0559,12.3985-11.3262,16.9585c-2.8934,2.5042-5.9609,4.8533-9.5797,6.18
				c-6.4554,2.366-12.398,0.3789-18.2597,6.509c-0.2929,0.3065-0.9045-0.0324-0.6586-0.4344
				c5.1862-8.4886,16.07-5.268,23.9272-10.3126c15.4885-9.9431,25.5101-36.6858,3.9686-45.7311
				C385.4597,17.9578,385.5255,17.8286,385.6144,17.8615L385.6144,17.8615z"/>
		</g>
		<g>
			<path class="st0" d="M392.3824,25.0977c3.1083,5.1589,0.542,13.082-1.9594,18.0021c-0.22,0.4325-0.8481,0.1194-0.6727-0.3234
				c1.925-4.8656,4.9967-12.3933,2.3829-17.5141C392.0482,25.0959,392.2809,24.9294,392.3824,25.0977L392.3824,25.0977z"/>
		</g>
		<g>
			<path class="st0" d="M387.4652,47.1611c-2.5752,6.0422-7.5343,10.6342-13.0594,14.0358
				c-0.4776,0.2933-0.8669-0.3577-0.4668-0.7056c4.8585-4.2257,10.102-7.6204,13.1225-13.5248
				C387.1931,46.7088,387.578,46.8964,387.4652,47.1611L387.4652,47.1611z"/>
		</g>
		<g>
			<path class="st0" d="M380.7385,22.6965c-13.3707,7.2241-15.8651,21.1682-19.8868,34.4721
				c-0.1377,0.4532-0.8044,0.3451-0.7334-0.1396c2.0008-13.751,7.17-28.2311,20.2351-34.9131
				C380.7455,21.9152,381.1371,22.4816,380.7385,22.6965L380.7385,22.6965z"/>
		</g>
		<g>
			<path class="st0" d="M382.9959,16.9969c-6.6143,2.0299-11.3257,4.6206-16.5283,9.2046c-0.4452,0.3925-1.1-0.1288-0.7127-0.621
				c3.9052-4.9624,10.8786-8.5624,17.1931-8.8252C383.0857,16.7492,383.1351,16.9542,382.9959,16.9969L382.9959,16.9969z"/>
		</g>
		<g>
			<path class="st0" d="M361.9429,30.2881c-3.7218,8.7397-7.5019,17.6876-5.6662,27.3534
				c1.133,5.9647,3.5526,11.1461,2.4525,17.3054c-0.0578,0.3239-0.6088,0.3098-0.5909-0.0357
				c0.4179-8.0768-4.1181-15.3394-3.749-23.4285c0.3497-7.6561,3.8896-14.6385,7.374-21.2806
				C361.8225,30.0884,361.9927,30.1711,361.9429,30.2881L361.9429,30.2881z"/>
		</g>
		<g>
			<path class="st0" d="M386.1851,26.8677c-4.1463,19.0711-18.2108,30.3663-27.9597,46.4644
				c-0.2483,0.4095-0.85,0.1283-0.6728-0.3234c3.1121-7.932,6.5734-12.6871,12.4417-18.6137
				c7.7346-7.8112,12.8423-17.0318,15.8975-27.5833C385.9444,26.6303,386.2269,26.6768,386.1851,26.8677L386.1851,26.8677z"/>
		</g>
	</g>
	<g>
		<g>
			<path class="st0" d="M316.1337,117.2773c24.7255,10.1302,35.2633,34.648,35.5901,60.3038
				c0.0103,0.8161-1.1748,0.9021-1.266,0.0865c-2.8596-25.6084-10.7639-47.1785-34.569-59.8821
				C315.5668,117.6139,315.7986,117.1405,316.1337,117.2773L316.1337,117.2773z"/>
		</g>
		<g>
			<path class="st0" d="M330.5677,128.5847c-6.8475-1.5419-15.3014,9.6987-22.7078,10.77
				c-6.3313,0.9162-11.729-1.2298-16.9579-4.693c-12.4267-8.231-24.2305-23.8789-17.211-39.348
				c5.6977-12.5569,24.4284-17.0525,36.6548-12.6434c8.059,2.9062,13.6363,10.4805,17.3473,17.8874
				c4.5797,9.1411,2.0811,18.3255,5.251,27.7078c0.1345,0.3982-0.3977,0.8076-0.7164,0.479
				c-6.2665-6.4503-3.263-14.9361-6.0629-22.965c-3.6475-10.4626-12.5564-20.228-23.7933-21.3647
				c-11.4888-1.1621-25.4824,3.8732-27.9922,16.5354c-3.5949,18.1389,18.593,39.7613,36.1057,34.9004
				c8.0077-2.2231,11.6628-11.8475,20.2285-7.7092C330.9495,128.2556,330.8315,128.6439,330.5677,128.5847L330.5677,128.5847z"/>
		</g>
		<g>
			<path class="st0" d="M279.659,91.8593c-13.845,18.1013,6.9683,35.7029,24.6432,37.5696
				c9.7466,1.0291,18.3716-7.7976,27.3759-2.8493c0.3728,0.2045,0.2087,0.8847-0.2468,0.7493
				c-8.8281-2.6142-16.7418,4.3296-25.7536,3.5352c-7.9071-0.6972-15.5736-3.3612-21.6224-8.5897
				c-10.1251-8.7514-13.3852-19.9695-4.5088-30.5129C279.6091,91.6873,279.7173,91.7836,279.659,91.8593L279.659,91.8593z"/>
		</g>
		<g>
			<path class="st0" d="M277.5647,101.4113c0.3441,5.8786,6.5504,10.6929,10.8086,14.0575c0.386,0.3046-0.1034,0.8227-0.4903,0.5622
				c-4.5825-3.0834-10.6891-8.5446-10.6163-14.6C277.269,101.2416,277.5529,101.2162,277.5647,101.4113L277.5647,101.4113z"/>
		</g>
		<g>
			<path class="st0" d="M292.7762,117.7568c5.5378,3.6621,11.8419,3.9521,18.1417,5.2012c0.4546,0.0903,0.4438,0.8528-0.0503,0.8373
				c-6.5001-0.2045-13.1483-1.6867-18.3861-5.7009C292.2478,117.9147,292.5435,117.6031,292.7762,117.7568L292.7762,117.7568z"/>
		</g>
		<g>
			<path class="st0" d="M286.1746,92.8442c14.6761-0.7912,26.4127,9.3405,34.9897,20.2689
				c0.2599,0.3314-0.2529,0.7743-0.5565,0.4875c-10.1049-9.5299-19.1802-20.5355-34.3857-20.0616
				C285.775,93.5531,285.7247,92.8682,286.1746,92.8442L286.1746,92.8442z"/>
		</g>
		<g>
			<path class="st0" d="M281.2902,89.4905c5.614-2.9372,13.5154-3.2682,19.3701-0.8777c0.4993,0.204,0.2256,0.9985-0.2933,0.8904
				c-3.1765-0.6605-6.1992-1.2947-9.4712-1.2895c-3.2808,0.0056-6.3219,0.7644-9.497,1.4987
				C281.2738,89.7415,281.1553,89.5615,281.2902,89.4905L281.2902,89.4905z"/>
		</g>
		<g>
			<path class="st0" d="M306.358,90.6098c6.3346,4.0518,12.775,8.31,16.9161,14.7537c4.3899,6.8306,4.1646,15.3037,8.4506,22.2095
				c0.2059,0.3314-0.259,0.6243-0.4978,0.3295c-3.8774-4.788-4.2953-10.0936-6.2547-15.7621
				c-3.3044-9.5609-10.9807-15.4894-18.7223-21.3657C306.1615,90.708,306.263,90.5496,306.358,90.6098L306.358,90.6098z"/>
		</g>
		<g>
			<path class="st0" d="M283.7352,99.6569c8.4656,8.1835,17.7995,13.2907,29.1106,16.3948
				c7.2062,1.9777,12.649,4.9441,18.4948,9.6404c0.3244,0.2604-0.0362,0.8227-0.4066,0.6172
				c-16.4667-9.1172-34.2883-11.9185-47.3952-26.4277C283.4137,99.7429,283.5937,99.5201,283.7352,99.6569L283.7352,99.6569z"/>
		</g>
	</g>
	<g>
		<g>
			<path class="st0" d="M193.9152,310.6544c4.3221,18.9903-2.745,35.7696-16.1875,49.2065
				c-0.5782,0.5778-1.4517-0.1819-0.9562-0.834c11.7535-15.457,18.0063-28.5169,16.5956-48.2631
				C193.3449,310.4546,193.8427,310.3342,193.9152,310.6544L193.9152,310.6544z"/>
		</g>
		<g>
			<path class="st0" d="M192.2458,328.955c-1.3224-5.5703-11.3915-6.2317-15.7987-8.6969
				c-2.6119-1.4611-4.9116-3.4101-6.6957-5.8377c-4.4278-6.0267-4.5722-13.6499-3.7937-20.794
				c1.5151-13.8958,9.6813-30.1603,25.6079-30.7799c12.9673-0.504,25.8396,12.6166,28.4153,24.718
				c1.6421,7.7149-1.2458,15.3272-4.8364,22.0596c-5.2567,9.8562-14.6625,12.7703-21.3506,21.1837
				c-0.2741,0.3446-0.8735,0.0494-0.7752-0.377c0.8885-3.8549,2.1893-5.7019,5.2153-8.4633
				c5.9924-5.4687,11.824-9.4293,15.3169-17.2354c4.0706-9.0951,4.6098-17.0991-0.6727-25.7532
				c-5.4029-8.8515-16.03-16.3473-26.7225-12.65c-15.6455,5.409-24.5572,33.3147-14.4585,46.8039
				c5.7315,7.6556,12.8634,4.7786,18.6231,10.0042c2.0793,1.8865,2.4488,2.9677,2.3825,5.7268
				C192.6971,329.1087,192.3121,329.2347,192.2458,328.955L192.2458,328.955z"/>
		</g>
		<g>
			<path class="st0" d="M195.513,266.28c-20.7263-1.9284-25.8645,21.1358-19.9784,36.9373c2.1211,5.6948,4.8562,9.63,9.49,13.3763
				c1.9401,1.5683,4.2304,2.611,6.0432,4.348c2.4761,2.3731,3.4919,4.4486,3.4717,7.8954c-0.0023,0.424-0.6506,0.6182-0.7743,0.1542
				c-2.3717-8.908-13.5366-12.5776-17.6744-21.1884c-3.3307-6.9312-4.9657-14.6682-3.6564-22.3139
				c2.1766-12.7064,9.9196-21.2068,23.1065-19.356C195.6371,266.1469,195.6066,266.2885,195.513,266.28L195.513,266.28z"/>
		</g>
		<g>
			<path class="st0" d="M186.3474,269.7028c-4.733,3.5554-5.4113,11.2387-5.9496,16.7145c-0.0414,0.4189-0.7446,0.3794-0.739-0.0442
				c0.0734-5.6168,1.4188-13.6208,6.5241-16.9195C186.3446,269.3488,186.5002,269.5876,186.3474,269.7028L186.3474,269.7028z"/>
		</g>
		<g>
			<path class="st0" d="M180.866,291.2937c-0.0959,6.6496,3.0966,12.1498,5.4701,18.1361c0.1758,0.4428-0.5063,0.7794-0.7536,0.3681
				c-3.3452-5.5547-5.7132-11.9711-5.1603-18.5305C180.4434,291.0158,180.8693,291.0398,180.866,291.2937L180.866,291.2937z"/>
		</g>
		<g>
			<path class="st0" d="M198.2316,272.3058c8.7312,11.7446,6.4061,27.4107,1.9176,40.3856
				c-0.141,0.4071-0.7785,0.1725-0.7033-0.2318c2.515-13.5131,6.9359-27.4516-1.7953-39.7693
				C197.3906,272.3232,197.9651,271.9471,198.2316,272.3058L198.2316,272.3058z"/>
		</g>
		<g>
			<path class="st0" d="M198.3947,266.3693c5.542,3.1783,10.0259,9.5689,11.236,15.826c0.1062,0.5477-0.7334,0.6586-0.9196,0.1829
				c-2.5254-6.454-5.5016-10.9412-10.4518-15.8034C198.1649,266.4821,198.2669,266.2955,198.3947,266.3693L198.3947,266.3693z"/>
		</g>
		<g>
			<path class="st0" d="M211.0391,288.0453c0.032,6.8235-0.0367,13.6922-2.4088,20.189
				c-3.0909,8.4637-11.0136,13.1835-14.907,21.1673c-0.173,0.3554-0.6586,0.0954-0.5383-0.2586
				c2.5066-7.3496,8.9178-11.2401,12.6758-17.8503c3.9583-6.9608,4.3903-15.457,4.9812-23.2597
				C210.8506,287.9207,211.0386,287.9324,211.0391,288.0453L211.0391,288.0453z"/>
		</g>
		<g>
			<path class="st0" d="M191.1725,273.9389c-2.1526,10.2778-2.0214,20.8942,1.1306,30.952
				c2.5451,8.1201,3.6711,14.6042,2.7948,23.1747c-0.0437,0.4292-0.7103,0.3695-0.739-0.0442
				c-0.4132-5.9792-0.1001-11.9439-1.7427-17.7718c-1.0483-3.719-2.5052-7.1874-3.1976-11.0145
				c-1.5603-8.6236-0.9045-16.9458,1.4601-25.3521C190.9304,273.7006,191.2121,273.748,191.1725,273.9389L191.1725,273.9389z"/>
		</g>
	</g>
	<g>
		<g>
			<path class="st0" d="M219.5127,375.6286c-22.7577-13.9418-45.8933-9.9836-69.2574,0.6506
				c-0.6516,0.2966-1.1724-0.771-0.5524-1.1306c21.9251-12.7106,49.1901-16.4202,70.1176,0.0136
				C220.066,375.3555,219.7863,375.7964,219.5127,375.6286L219.5127,375.6286z"/>
		</g>
		<g>
			<path class="st0" d="M203.052,368.1173c7.0525,4.7104,2.6556,10.8871,3.2033,18.279
				c1.4545,19.6432,34.7302,29.6183,48.6335,16.2364c7.8356-7.5414,7.8686-17.2838,3.4266-26.6783
				c-5.6708-11.9961-17.0435-16.651-29.962-15.677c-9.4909,0.7155-16.9561,9.1745-26.5565,6.8386
				c-0.3911-0.0949-0.5312-0.7634-0.0588-0.8622c8.7768-1.8278,15.292-8.2747,24.3697-9.356
				c7.5122-0.8946,16.8099-0.4701,23.4618,3.5281c11.5279,6.9298,18.8276,26.4987,11.6877,38.712
				c-7.8601,13.4449-25.4551,13.4915-38.3862,8.7951c-6.8329-2.4821-13.742-6.0685-17.2015-12.7863
				c-3.7669-7.3157,1.8329-21.6143-2.9264-26.675C202.5326,368.248,202.8015,367.9504,203.052,368.1173L203.052,368.1173z"/>
		</g>
		<g>
			<path class="st0" d="M260.3509,393.7059c-4.3245,12.2852-14.5506,15.5623-26.8202,12.1945
				c-6.7996-1.8668-12.4709-5.9031-17.0972-11.1193c-2.5376-2.8606-4.9356-5.8984-6.297-9.5041
				c-2.4238-6.4216-0.5561-12.4084-6.7356-18.1718c-0.3131-0.2919,0.032-0.8974,0.4344-0.6591
				c8.4807,5.0367,5.6384,16.0183,10.6088,23.8027c9.9272,15.5482,37.0666,24.8694,45.7724,3.3922
				C260.2531,393.5508,260.382,393.6171,260.3509,393.7059L260.3509,393.7059z"/>
		</g>
		<g>
			<path class="st0" d="M253.1978,400.5633c-5.118,3.1718-13.0839,0.699-18.028-1.7384c-0.4372-0.2158-0.1189-0.8415,0.3234-0.6727
				c4.89,1.8644,12.4521,4.8392,17.54,2.1625C253.1992,400.2272,253.3643,400.4604,253.1978,400.5633L253.1978,400.5633z"/>
		</g>
		<g>
			<path class="st0" d="M231.0744,395.9182c-6.0751-2.5009-10.7273-7.4046-14.1976-12.8874
				c-0.2426-0.3841,0.3018-0.9214,0.6313-0.5519c4.3184,4.8425,7.7788,10.0682,13.7604,13.0359
				C231.5285,395.6437,231.339,396.0278,231.0744,395.9182L231.0744,395.9182z"/>
		</g>
		<g>
			<path class="st0" d="M255.4529,388.886c-7.3891-13.2799-21.3661-15.5966-34.718-19.4547
				c-0.4579-0.1321-0.3422-0.7978,0.1396-0.7333c13.7759,1.8311,28.3153,6.8212,35.1599,19.8035
				C256.2404,388.8916,255.6734,389.2818,255.4529,388.886L255.4529,388.886z"/>
		</g>
		<g>
			<path class="st0" d="M261.183,391.0748c-2.1131-6.5918-4.7645-11.2669-9.4138-16.4155
				c-0.4005-0.4438,0.1284-1.0906,0.6215-0.7122c5.0085,3.8426,8.6927,10.7715,9.0339,17.0798
				C261.4322,391.166,261.2267,391.212,261.183,391.0748L261.183,391.0748z"/>
		</g>
		<g>
			<path class="st0" d="M247.63,370.1891c-8.7632-3.6043-17.8127-7.304-27.4281-5.3239c-5.9444,1.2242-11.1142,3.6856-17.2687,2.665
				c-0.3267-0.054-0.3093-0.6046,0.0353-0.5909c8.0891,0.3169,15.2854-4.3113,23.3843-4.04
				c7.6561,0.2567,14.6818,3.71,21.3633,7.1103C247.8312,370.0682,247.748,370.2375,247.63,370.1891L247.63,370.1891z"/>
		</g>
		<g>
			<path class="st0" d="M251.3513,394.3871c-19.1209-3.9089-30.5947-17.8329-46.8109-27.3825
				c-0.4156-0.2444-0.1265-0.8429,0.3235-0.6727c7.9715,3.0152,12.7698,6.4183,18.7693,12.2137
				c7.9048,7.6354,17.1884,12.6251,27.7737,15.5482C251.5896,394.1445,251.5417,394.4261,251.3513,394.3871L251.3513,394.3871z"/>
		</g>
	</g>
	<g>
		<g>
			<path class="st0" d="M149.1101,429.3876c-25.0691-9.1566-46.9618-0.6939-67.7559,14.3588
				c-0.5796,0.4193-1.3022-0.5237-0.7658-0.999c18.9729-16.8024,44.9625-25.8401,68.7308-13.8779
				C149.5986,429.0102,149.4115,429.4977,149.1101,429.3876L149.1101,429.3876z"/>
		</g>
		<g>
			<path class="st0" d="M131.4874,425.2865c7.8455,3.2197,4.7603,10.1448,6.7615,17.2814
				c5.3169,18.9658,39.9093,22.1508,50.8858,6.2801c6.1866-8.9446,4.2883-18.5004-1.9265-26.8287
				c-7.9349-10.6346-20.0047-12.9443-32.4742-9.4303c-9.1609,2.5818-14.8026,12.352-24.6752,11.9646
				c-0.4019-0.016-0.6718-0.6436-0.2285-0.8335c8.2409-3.5305,13.3495-11.1405,22.0332-13.9987
				c7.186-2.3651,16.3835-3.7909,23.6955-1.1898c12.6726,4.5088,23.7044,22.2438,19.1256,35.6291
				c-5.0409,14.7358-22.2782,18.2672-35.8829,16.2256c-7.1893-1.0794-14.6719-3.2254-19.3936-9.1252
				c-5.1415-6.4244-2.4854-21.549-8.1535-25.5665C131.0042,425.5168,131.2091,425.1722,131.4874,425.2865L131.4874,425.2865z"/>
		</g>
		<g>
			<path class="st0" d="M192.7201,439.0158c-1.8047,12.8987-11.179,18.1365-23.8727,17.2659
				c-7.0346-0.4823-13.3932-3.3152-18.9611-7.5113c-3.0538-2.3011-6.0065-4.804-8.0552-8.0684
				c-3.648-5.8138-3.0035-12.052-10.2022-16.4771c-0.3648-0.2242-0.1467-0.8861,0.2952-0.7319
				c9.3104,3.2564,8.7002,14.5835,15.1143,21.2289c12.8108,13.2733,41.259,17.0332,45.537-5.7428
				C192.5932,438.8832,192.7333,438.9227,192.7201,439.0158L192.7201,439.0158z"/>
		</g>
		<g>
			<path class="st0" d="M187.0671,447.1547c-4.3879,4.1223-12.6857,3.2771-18.0148,1.8677c-0.471-0.125-0.2835-0.8015,0.1838-0.7239
				c5.1622,0.8589,13.1638,2.2762,17.6204-1.3553C187.0023,446.8247,187.2101,447.0207,187.0671,447.1547L187.0671,447.1547z"/>
		</g>
		<g>
			<path class="st0" d="M164.4623,446.9845c-6.4503-1.2477-11.9819-5.1326-16.4696-9.8195
				c-0.314-0.3281,0.1133-0.9628,0.5096-0.6656c5.1923,3.891,9.6193,8.3274,16.0704,10.0512
				C164.8529,446.6254,164.7434,447.039,164.4623,446.9845L164.4623,446.9845z"/>
		</g>
		<g>
			<path class="st0" d="M186.9647,435.2616c-9.874-11.5523-24.0331-11.0544-37.8846-12.1907
				c-0.4748-0.039-0.4936-0.7141-0.0079-0.7465c13.8652-0.9345,29.1049,1.0765,38.3857,12.4455
				C187.737,435.1116,187.2589,435.6061,186.9647,435.2616L186.9647,435.2616z"/>
		</g>
		<g>
			<path class="st0" d="M193.0144,436.2723c-3.3772-6.0427-6.902-10.0997-12.4793-14.2253
				c-0.4804-0.3554-0.0903-1.0944,0.4682-0.8213c5.6704,2.774,10.6544,8.8356,12.2382,14.9516
				C193.2767,436.3118,193.0845,436.3983,193.0144,436.2723L193.0144,436.2723z"/>
		</g>
		<g>
			<path class="st0" d="M175.5919,418.485c-9.3033-1.7963-18.9066-3.6296-27.9391,0.2162
				c-5.5839,2.3769-10.1631,5.8138-16.3986,6.0328c-0.3305,0.0117-0.4226-0.5312-0.0818-0.5862
				c7.9913-1.2918,14.128-7.2537,22.1202-8.5925c7.555-1.2655,15.1255,0.7277,22.3487,2.7369
				C175.7654,418.3271,175.7175,418.5095,175.5919,418.485L175.5919,418.485z"/>
		</g>
		<g>
			<path class="st0" d="M184.0336,441.4669c-19.5159-0.0437-33.5212-11.4183-51.308-17.5663
				c-0.4555-0.1575-0.291-0.8011,0.1838-0.7235c8.4111,1.376,13.7886,3.7613,20.8171,8.2531
				c9.261,5.9181,19.349,8.9695,30.3033,9.7382C184.2193,441.1816,184.2282,441.4674,184.0336,441.4669L184.0336,441.4669z"/>
		</g>
	</g>
	<g>
		<g>
			<path class="st0" d="M320.4239,202.1303c23.2489,19.5487,23.64,53.87,5.495,77.1175c-0.432,0.5538-1.4437-0.0874-1.0502-0.692
				c16.196-24.8783,15.9877-54.2348-4.8157-76.0005C319.8062,202.2972,320.1414,201.8929,320.4239,202.1303L320.4239,202.1303z"/>
		</g>
		<g>
			<path class="st0" d="M330.486,217.4937c-4.9619-3.0355-19.5346,4.4744-26.5378,2.6199
				c-6.1174-1.6195-10.4278-5.9971-14.0287-10.9698c-8.4863-11.7168-13.7679-29.4618-2.6665-41.3869
				c9.7213-10.4424,29.694-8.2465,39.7274,0.6483c5.7823,5.126,8.1083,12.556,9.4397,19.9714
				c1.9711,10.9778-3.5888,18.8295-3.5963,29.5403c-0.0005,0.5279-0.6534,0.6262-0.8688,0.173
				c-3.9949-8.4191,2.0351-16.6383,1.4742-25.4875c-0.7305-11.534-7.1314-22.4756-17.9644-26.8678
				c-12.3661-5.0136-28.3345-0.8105-31.6201,13.6842c-3.4238,15.1039,9.4702,39.9836,26.8546,39.0359
				c8.0834-0.441,13.3331-7.9471,20.0428-1.3497C330.9194,217.2789,330.7253,217.6399,330.486,217.4937L330.486,217.4937z"/>
		</g>
		<g>
			<path class="st0" d="M294.0652,166.3503c-18.8445,12.6396-5.1147,35.92,11.2242,43.4765
				c8.8041,4.0725,19.968-1.4197,26.8616,6.1019c0.346,0.3775-0.101,0.8984-0.5232,0.5999
				c-7.2969-5.1547-19.8411-1.8287-28.3364-6.3205c-6.6223-3.5018-12.3392-8.5117-15.7912-15.26
				c-5.8067-11.3506-4.6249-22.0036,6.4827-28.7223C294.0648,166.1764,294.1457,166.2963,294.0652,166.3503L294.0652,166.3503z"/>
		</g>
		<g>
			<path class="st0" d="M289.0112,174.7144c-1.6077,5.6238,2.8253,12.2805,5.7061,16.777c0.2618,0.4085-0.3291,0.7865-0.6224,0.4118
				c-3.3946-4.3423-7.422-11.6252-5.3648-17.2814C288.7879,174.4643,289.0577,174.5522,289.0112,174.7144L289.0112,174.7144z"/>
		</g>
		<g>
			<path class="st0" d="M298.1557,195.0802c4.0941,5.2092,9.9233,7.5419,15.4912,10.7517c0.4748,0.2741,0.1415,0.9534-0.3671,0.7625
				c-6.0827-2.2814-11.8047-5.825-15.4974-11.2674C297.6192,195.0863,297.9798,194.8564,298.1557,195.0802L298.1557,195.0802z"/>
		</g>
		<g>
			<path class="st0" d="M299.8912,169.3731c14.1586,4.0636,22.014,17.2457,26.6393,30.4166
				c0.1359,0.3878-0.4626,0.708-0.6652,0.3253c-6.534-12.3416-11.4785-25.4998-26.1043-30.0579
				C299.3393,169.9259,299.4568,169.2485,299.8912,169.3731L299.8912,169.3731z"/>
		</g>
		<g>
			<path class="st0" d="M296.3904,164.6293c6.266-0.9548,13.7843,1.2458,18.5817,5.3775c0.393,0.3385-0.0446,1.0568-0.5157,0.7823
				c-5.9346-3.4651-11.2444-5.1989-18.0806-5.9129C296.2268,164.8601,296.2602,164.6495,296.3904,164.6293L296.3904,164.6293z"/>
		</g>
		<g>
			<path class="st0" d="M319.7601,173.7634c4.6803,5.833,9.4204,11.9462,11.2914,19.3386
				c1.9937,7.8766-1.0742,15.889,0.8354,23.7797c0.0893,0.369-0.4273,0.5552-0.5655,0.1899
				c-2.4727-6.5142-0.4321-12.5973-0.9092-19.3461c-0.6342-8.9757-5.9181-16.6242-10.8185-23.8525
				C319.5208,173.7657,319.6807,173.6651,319.7601,173.7634L319.7601,173.7634z"/>
		</g>
		<g>
			<path class="st0" d="M295.4116,175.0388c5.0489,9.8162,11.8593,17.7276,20.9482,23.9926
				c6.6444,4.5797,11.3972,9.089,15.7625,15.9454c0.2158,0.3394-0.2632,0.8105-0.5571,0.4875
				c-12.6552-13.9272-28.6842-22.3726-36.4198-40.2958C295.0797,175.0153,295.334,174.8874,295.4116,175.0388L295.4116,175.0388z"/>
		</g>
	</g>
	<g>
		<g>
			<path class="st0" d="M275.9635,283.8543c4.0306,8.8454,7.7764,22.092,3.1177,31.5086
				c-4.34,8.7721-16.2434,13.3142-24.8017,15.9727c-0.7926,0.2463-1.14-0.8744-0.4048-1.203
				c7.3769-3.294,18.5653-7.7759,22.8818-15.252c5.204-9.0137,1.4253-21.7009-1.3276-30.8463
				C275.3223,283.6799,275.8154,283.529,275.9635,283.8543L275.9635,283.8543z"/>
		</g>
		<g>
			<path class="st0" d="M278.1227,301.9988c-2.4704-5.1951-12.5104-3.6978-17.1954-5.134c-2.8531-0.8748-5.5218-2.2833-7.776-4.2704
				c-5.1805-4.5652-6.9947-11.1847-7.8836-17.799c-1.8884-14.0462,1.7413-31.5965,16.8809-36.7437
				c12.7755-4.3433,28.8079,5.7183,34.2343,17.2786c3.4355,7.3186,2.2471,15.4109,0.1157,22.9255
				c-3.0524,10.7597-11.6736,15.6469-16.4409,25.252c-0.1866,0.3761-0.8551,0.3018-0.8481-0.1631
				c0.0508-3.1652,0.1467-4.1068,1.6397-6.9316c4.4716-8.4595,10.6967-12.107,13.0284-22.4356
				c2.3552-10.4306,0.0611-19.5868-8.0143-26.9425c-8.9046-8.1116-22.1131-10.7597-31.2237-1.3614
				c-12.6471,13.0458-10.1946,43.3848,8.3072,49.4233c6.0276,1.9664,14.0833-1.3403,15.6328,6.8108
				C278.6342,302.1925,278.2266,302.2165,278.1227,301.9988L278.1227,301.9988z"/>
		</g>
		<g>
			<path class="st0" d="M268.1997,240.077c-21.1377,2.6392-20.716,27.1409-11.1118,41.3328
				c4.8848,7.2175,10.2924,8.4271,17.1559,12.4234c3.5948,2.0938,4.9817,3.6889,6.1127,7.5973
				c0.1185,0.4104-0.4842,0.7625-0.7094,0.3465c-4.4434-8.2047-15.9026-9.4397-21.7182-17.0008
				c-4.7975-6.2368-8.0036-13.5319-8.2433-21.463c-0.3907-12.9052,5.2995-22.3609,18.5032-23.3852
				C268.2858,239.9209,268.2943,240.0652,268.1997,240.077L268.1997,240.077z"/>
		</g>
		<g>
			<path class="st0" d="M259.9579,245.3393c-3.9272,4.4039-2.9019,12.1676-2.3195,17.5804
				c0.0447,0.4123-0.6365,0.5641-0.7258,0.1443c-1.1489-5.4095-1.4761-13.7369,2.8206-17.9208
				C259.8681,245.0112,260.0872,245.194,259.9579,245.3393L259.9579,245.3393z"/>
		</g>
		<g>
			<path class="st0" d="M259.1169,267.5963c1.3205,6.5203,5.5665,11.218,9.143,16.5782c0.2562,0.3836-0.2957,0.9096-0.6304,0.5519
				c-4.4462-4.7466-8.0919-10.4998-8.9484-17.0431C258.6487,267.435,259.0661,267.3457,259.1169,267.5963L259.1169,267.5963z"/>
		</g>
		<g>
			<path class="st0" d="M272.103,245.3853c10.9534,9.7579,12.0431,25.3625,10.3615,39.0815
				c-0.0512,0.4203-0.7273,0.3775-0.739-0.0446c-0.378-13.8182,1.0238-28.1582-10.08-38.5122
				C271.3184,245.6054,271.7674,245.0859,272.103,245.3853L272.103,245.3853z"/>
		</g>
		<g>
			<path class="st0" d="M271.0269,239.5584c6.0841,1.9599,11.7987,7.2288,14.3043,13.0999
				c0.2134,0.4997-0.5515,0.8495-0.8425,0.4113c-3.829-5.7714-7.696-9.5647-13.5389-13.2766
				C270.8431,239.7249,270.8803,239.5114,271.0269,239.5584L271.0269,239.5584z"/>
		</g>
		<g>
			<path class="st0" d="M287.9398,258.0983c1.5024,6.8395,2.9109,13.8008,1.8043,20.8157
				c-1.3633,8.6442-8.0754,14.8143-10.0593,23.2428c-0.0884,0.3789-0.6266,0.2675-0.5867-0.1119
				c0.7333-6.8931,5.2003-11.557,7.7802-17.7624c3.444-8.2809,2.045-17.5391,0.8678-26.1457
				C287.7311,258.0269,287.9154,257.9874,287.9398,258.0983L287.9398,258.0983z"/>
		</g>
		<g>
			<path class="st0" d="M265.5578,248.4692c0.1001,11.0122,2.6336,21.5942,8.2682,31.0987
				c4.0485,6.8297,6.0573,13.0609,6.919,20.9919c0.0456,0.4179-0.6088,0.5543-0.7258,0.1443
				c-1.643-5.7282-2.6255-11.6684-5.4161-16.9961c-1.6783-3.2047-3.7397-6.0869-5.1763-9.4237
				c-3.57-8.2921-4.6916-16.8311-4.167-25.795C265.2705,248.3033,265.5559,248.2722,265.5578,248.4692L265.5578,248.4692z"/>
		</g>
	</g>
	<g>
		<g>
			<path class="st0" d="M112.5734,347.4422c25.2999,25.3023,2.8093,58.1568-18.8902,77.2505
				c-0.5923,0.5214-1.5401-0.2299-0.9567-0.834c20.552-21.2688,41.4113-48.885,19.4265-76.048
				C111.9542,347.5649,112.3491,347.218,112.5734,347.4422L112.5734,347.4422z"/>
		</g>
		<g>
			<path class="st0" d="M120.936,363.7867c-5.865-4.5074-18.8516,2.7839-26.6581-0.2111
				c-7.1239-2.7336-11.4009-9.2643-14.5849-15.8815c-5.9773-12.4225-7.6758-30.0903,5.0155-39.1821
				c10.9807-7.8662,29.6945-3.247,38.2029,6.2993c5.3333,5.9844,7.0045,14.6635,7.2251,22.4963
				c0.2821,10.0103-5.8603,17.5837-6.8974,27.2372c-0.0494,0.463-0.7225,0.456-0.8622,0.0592
				c-3.1675-9.01,3.8722-17.8653,4.1745-27.052c0.3878-11.7667-5.1063-22.3581-15.7701-27.4427
				c-9.4082-4.4872-20.7987-4.2455-27.8117,4.1068c-12.65,15.0654-1.4587,48.3392,19.734,47.8456
				c7.5028-0.1749,13.1967-5.1387,18.5831,1.4178C121.4634,363.6951,121.1348,363.9395,120.936,363.7867L120.936,363.7867z"/>
		</g>
		<g>
			<path class="st0" d="M90.1969,309.0795c-20.0391,10.5392-8.9898,35.3616,6.5946,44.3368
				c8.373,4.8223,19.9925,0.857,26.0371,9.065c0.2689,0.3648-0.26,0.8133-0.5933,0.5195
				c-6.6139-5.8123-18.4736-3.5963-26.2007-8.4083c-6.3177-3.9338-11.5833-9.2779-14.6545-16.1019
				c-5.4682-12.1484-3.6442-23.7449,8.7514-29.5441C90.2077,308.9108,90.2721,309.04,90.1969,309.0795L90.1969,309.0795z"/>
		</g>
		<g>
			<path class="st0" d="M84.2675,316.8842c-2.1658,5.3446,1.5217,12.5212,3.8779,17.2335c0.2078,0.416-0.361,0.8307-0.6224,0.4118
				c-2.9132-4.6761-6.1781-12.3599-3.5244-17.7741C84.0837,316.5809,84.339,316.7079,84.2675,316.8842L84.2675,316.8842z"/>
		</g>
		<g>
			<path class="st0" d="M91.1907,338.0651c3.5356,5.6436,9.1016,8.5944,14.3273,12.3994c0.3897,0.2835-0.0418,0.9101-0.4612,0.6995
				c-5.8076-2.9137-11.1442-7.0459-14.2394-12.8517C90.6844,338.0632,91.0351,337.8164,91.1907,338.0651L91.1907,338.0651z"/>
		</g>
		<g>
			<path class="st0" d="M95.7112,312.728c13.5878,5.5218,20.008,19.5031,23.1944,33.0195c0.1086,0.463-0.5265,0.6906-0.7075,0.2379
				c-5.1763-12.9349-8.7909-26.5678-22.7887-32.6293C94.9952,313.1765,95.2989,312.5606,95.7112,312.728L95.7112,312.728z"/>
		</g>
		<g>
			<path class="st0" d="M92.672,307.6198c6.3041-0.2759,13.5568,2.6918,17.8813,7.2871c0.416,0.4419-0.1265,1.076-0.621,0.7126
				c-5.613-4.1251-10.4617-6.2843-17.2753-7.7529C92.522,307.837,92.5272,307.6264,92.672,307.6198L92.672,307.6198z"/>
		</g>
		<g>
			<path class="st0" d="M114.9454,319.1773c3.9573,6.1711,7.8516,12.5094,9.0673,19.868
				c1.3671,8.2738-2.7299,16.0878-1.5814,24.3485c0.046,0.3333-0.4922,0.4428-0.5811,0.1156
				c-1.6416-6.0887,0.3742-11.4324,1.0013-17.5221c1.0013-9.7189-3.6498-18.4031-8.0726-26.6999
				C114.7203,319.1768,114.8749,319.0678,114.9454,319.1773L114.9454,319.1773z"/>
		</g>
		<g>
			<path class="st0" d="M90.6139,317.8869c4.2243,10.9337,10.527,19.7391,19.5793,27.1395
				c5.7851,4.7297,9.3132,9.7213,12.6481,16.4207c0.2092,0.4198-0.3309,0.81-0.6229,0.4113
				c-11.0704-15.1091-26.1278-25.3108-31.8875-43.876C90.274,317.798,90.5448,317.7078,90.6139,317.8869L90.6139,317.8869z"/>
		</g>
	</g>
	<g>
		<g>
			<path class="st0" d="M378.8195,138.5217c-15.6948,11.4526-25.3573,26.8875-26.7234,46.3248
				c-0.0512,0.7277-1.2148,0.6285-1.2566-0.0757c-1.1376-19.4754,10.7315-37.5405,27.6688-46.7197
				C378.8242,137.88,379.1171,138.3045,378.8195,138.5217L378.8195,138.5217z"/>
		</g>
		<g>
			<path class="st0" d="M365.454,150.7077c6.9336-4.5388,9.7955,1.3694,16.471,4.1858
				c19.4402,8.2038,42.1494-20.2351,35.8829-38.4196c-3.7505-10.8829-15.9882-14.5844-26.4776-13.5187
				c-12.0929,1.2293-19.4067,10.613-22.9626,21.4099c-2.9456,8.9428,1.5133,19.3043-4.3334,27.1334
				c-0.2717,0.3639-0.8584,0.0381-0.7752-0.377c1.9058-9.5849-1.7093-18.3735,1.5504-27.926
				c2.5-7.3247,6.6388-15.1105,13.4012-19.2629c11.5777-7.1084,31.9562-5.3657,39.5445,6.8484
				c8.6052,13.8511-0.0569,30.237-10.6445,40.0692c-4.4876,4.1665-9.5896,7.6424-15.8711,8.0561
				c-8.2117,0.5406-18.7999-10.2623-25.5806-7.7797C365.408,151.2182,365.2317,150.8534,365.454,150.7077L365.454,150.7077z"/>
		</g>
		<g>
			<path class="st0" d="M411.494,108.0214c10.167,9.3113,8.3927,20.8406-0.527,30.8378c-4.953,5.5514-11.58,9.0847-18.7467,10.9397
				c-9.2737,2.4008-18.9103-3.6499-27.579,0.1942c-0.4283,0.1895-0.6948-0.4546-0.3469-0.7094
				c8.2145-6.0145,18.0063,1.565,27.5136-0.7108c17.3369-4.1501,35.8463-24.0857,19.5878-40.4391
				C411.3285,108.0666,411.4225,107.9561,411.494,108.0214L411.494,108.0214z"/>
		</g>
		<g>
			<path class="st0" d="M415.0043,117.3154c0.8527,5.9844-4.4994,12.2029-8.6401,15.8476c-0.3483,0.307-0.9063-0.1368-0.5622-0.4903
				c3.7787-3.876,9.3221-9.4679,8.9042-15.3371C414.6926,117.1419,414.9774,117.1273,415.0043,117.3154L415.0043,117.3154z"/>
		</g>
		<g>
			<path class="st0" d="M402.0699,135.804c-4.6742,4.6559-11.0742,6.9871-17.4934,8.0289
				c-0.4814,0.0785-0.6093-0.6722-0.1636-0.8227c6.1057-2.0591,12.3364-3.1845,17.3646-7.54
				C401.9674,135.3057,402.248,135.6263,402.0699,135.804L402.0699,135.804z"/>
		</g>
		<g>
			<path class="st0" d="M405.1072,110.647c-15.0494,1.485-22.753,13.6203-31.5072,24.333c-0.2609,0.3192-0.8354-0.04-0.6177-0.4071
				c7.0962-11.9486,17.4131-23.5084,32.077-24.6207C405.5082,109.9183,405.5524,110.6032,405.1072,110.647L405.1072,110.647z"/>
		</g>
		<g>
			<path class="st0" d="M409.394,106.2294c-3.232-0.3159-6.361-0.6774-9.6089-0.2595c-3.2456,0.4175-6.1598,1.4352-9.2253,2.5014
				c-0.4936,0.1716-0.8876-0.5721-0.4118-0.8429c5.4978-3.1271,13.373-3.8229,19.3231-1.6331
				C409.6122,106.047,409.5238,106.2421,409.394,106.2294L409.394,106.2294z"/>
		</g>
		<g>
			<path class="st0" d="M384.8876,110.4923c-6.9161,6.8254-13.7632,13.696-15.8048,23.6015
				c-1.2115,5.8744-0.9397,11.1913-4.1665,16.4404c-0.1974,0.3215-0.7,0.0983-0.5383-0.2586
				c3.3575-7.4003,2.0403-15.7738,5.5101-23.113c3.2752-6.9265,9.112-11.9838,14.8703-16.8189
				C384.8434,110.2723,384.9675,110.4138,384.8876,110.4923L384.8876,110.4923z"/>
		</g>
		<g>
			<path class="st0" d="M408.585,116.5891c-11.0591,15.9896-28.5117,21.2378-43.5827,32.328
				c-0.3361,0.2478-0.7794-0.252-0.487-0.5566c4.6939-4.8862,9.3268-8.4661,15.464-11.3553
				c11.5184-5.4226,20.2431-10.3991,28.3806-20.6121C408.4821,116.2398,408.6917,116.4344,408.585,116.5891L408.585,116.5891z"/>
		</g>
	</g>
	<g>
		<g>
			<path class="st0" d="M371.3618,244.8283c-15.9637,5.6779-28.3843,16.3492-40.0372,28.3124
				c-0.5754,0.5909-1.4329-0.1772-0.9562-0.834c9.5633-13.1845,24.7043-24.8919,40.8843-28.027
				C371.5743,244.2171,371.6537,244.7244,371.3618,244.8283L371.3618,244.8283z"/>
		</g>
		<g>
			<path class="st0" d="M355.0051,252.5916c6.0328-2.7675,8.4557,2.3341,12.3496,6.188c8.9211,8.8304,19.4504,8.2484,29.7823,2.2001
				c8.2621-4.8359,16.5933-12.5127,17.7309-22.6542c1.5626-13.9286-12.0004-23.3331-24.5892-24.1571
				c-9.4082-0.6163-16.6162,3.8431-22.4902,11.0009c-5.0418,6.1433-6.2406,12.5043-8.6391,19.6183
				c-1.3045,3.8708-2.5413,5.8081-5.7155,8.137c-0.3521,0.2586-0.8546-0.1824-0.6487-0.566
				c4.2422-7.9038,3.5671-17.1343,8.6076-24.7641c4.1092-6.2195,10.3752-13.0853,17.6429-15.5613
				c12.8489-4.3776,32.3844,2.5983,37.2091,15.9233c5.5524,15.3338-7.0487,29.2371-19.6033,35.9469
				c-5.9825,3.1976-12.4878,5.6417-19.3109,4.0588c-7.0435-1.6345-16.4569-15.9266-22.2349-14.913
				C354.8128,253.0983,354.7827,252.6936,355.0051,252.5916L355.0051,252.5916z"/>
		</g>
		<g>
			<path class="st0" d="M411.5015,225.1869c6.801,11.3403,2.3495,21.4992-8.333,28.6217
				c-6.2007,4.1341-13.2394,5.6972-20.6267,5.7066c-10.1312,0.0122-18.5973-9.002-28.082-7.8479
				c-0.456,0.0555-0.574-0.6276-0.1542-0.7743c3.2686-1.1419,4.9074-1.3191,8.2371-0.0531
				c7.8883,2.9993,12.2184,7.5475,21.55,7.4248c17.2086-0.2266,37.3943-14.199,27.2838-32.9951
				C411.3318,225.1865,411.4507,225.1033,411.5015,225.1869L411.5015,225.1869z"/>
		</g>
		<g>
			<path class="st0" d="M412.1498,235.0972c-1.0173,6.0262-7.8385,10.3559-12.9664,12.681
				c-0.3817,0.173-0.6957-0.4616-0.3248-0.6652c4.8101-2.641,11.6068-6.3337,12.9979-12.0722
				C411.902,234.8541,412.1822,234.9063,412.1498,235.0972L412.1498,235.0972z"/>
		</g>
		<g>
			<path class="st0" d="M394.3889,249.0108c-5.7978,3.1069-12.6458,3.4599-19.0636,2.5837
				c-0.4743-0.0644-0.4292-0.8236,0.0508-0.8372c6.4305-0.1852,12.7576,0.5768,18.8182-2.1456
				C394.4227,248.5087,394.6131,248.8909,394.3889,249.0108L394.3889,249.0108z"/>
		</g>
		<g>
			<path class="st0" d="M404.6404,225.8399c-14.8839-3.058-25.7334,6.3718-37.2392,14.0758
				c-0.3375,0.2261-0.8067-0.2656-0.487-0.5566c10.214-9.3085,23.5526-17.4822,37.8564-14.2037
				C405.2068,225.2556,405.0809,225.9306,404.6404,225.8399L404.6404,225.8399z"/>
		</g>
		<g>
			<path class="st0" d="M410.0202,222.8642c-2.9974-1.2368-5.873-2.5009-9.0988-3.0477c-3.215-0.5458-6.3219-0.4245-9.5558-0.3051
				c-0.5101,0.0188-0.7282-0.7982-0.1824-0.9195c6.1823-1.3765,13.907,0.2388,18.9724,4.0659
				C410.2727,222.7466,410.1439,222.9149,410.0202,222.8642L410.0202,222.8642z"/>
		</g>
		<g>
			<path class="st0" d="M385.3347,219.7902c-7.8225,4.0988-15.8147,8.239-20.6836,15.8965
				c-3.6231,5.6981-4.9601,11.9298-10.0964,16.573c-0.2773,0.251-0.7075-0.0926-0.4499-0.3921
				c5.6187-6.5283,6.8442-15.4297,12.9984-21.5739c5.0475-5.0381,11.69-7.9339,18.145-10.6812
				C385.3507,219.5692,385.4353,219.737,385.3347,219.7902L385.3347,219.7902z"/>
		</g>
		<g>
			<path class="st0" d="M406.2242,232.5328c-6.9895,5.6093-14.6216,9.6394-23.4257,11.5387
				c-3.1176,0.6723-6.2303,0.8011-9.3841,1.1438c-6.5899,0.7169-12.1273,3.3537-18.2978,5.5246
				c-0.3893,0.1373-0.7019-0.4541-0.3253-0.6647c6.9274-3.8685,13.1915-5.9444,21.1057-6.5222
				c10.9863-0.8029,21.1715-5.0047,30.1622-11.2688C406.219,232.1731,406.3718,232.4143,406.2242,232.5328L406.2242,232.5328z"/>
		</g>
	</g>
	<g>
		<g>
			<path class="st0" d="M308.464,328.6438c-16.4352-4.1891-32.6138-2.4554-49.0082,0.975c-0.7794,0.1631-1.1941-0.9144-0.4052-1.203
				c14.9986-5.4899,34.7979-6.9589,49.5887-0.3032C308.9261,328.2418,308.778,328.7237,308.464,328.6438L308.464,328.6438z"/>
		</g>
		<g>
			<path class="st0" d="M290.5268,325.8899c6.9166,1.1484,5.4442,6.7478,6.6294,12.3472
				c4.4946,21.2463,37.3374,24.7123,50.9012,9.4702c8.5375-9.5939,4.6771-23.4459-3.9893-31.5848
				c-7.028-6.6007-15.1486-8.4209-24.3475-6.4832c-9.3123,1.9617-13.7448,6.549-21.11,11.9129
				c-3.3414,2.4337-5.3046,3.5775-9.5172,3.7359c-0.4099,0.015-0.6962-0.5984-0.2769-0.818
				c7.9358-4.1505,12.4925-12.1522,20.921-15.6573c6.9608-2.8944,16.0629-5.0075,23.5192-2.9894
				c12.9833,3.514,25.2393,20.2863,21.8311,33.917c-3.8328,15.3282-21.0441,20.1199-34.8745,19.0349
				c-7.178-0.5632-14.6305-2.1093-19.7443-7.5828c-5.0724-5.4283-4.7988-22.4822-10.0884-24.86
				C290.1333,326.2218,290.2673,325.8471,290.5268,325.8899L290.5268,325.8899z"/>
		</g>
		<g>
			<path class="st0" d="M352.6889,334.8966c-0.8584,13.7829-11.219,19.7617-24.6,18.994c-6.3153-0.362-12.0755-2.602-17.3613-5.983
				c-2.7383-1.7521-5.5815-3.6889-7.7101-6.1805c-4.8167-5.6393-4.5797-12.8855-12.3778-16.8889
				c-0.3864-0.1984-0.2045-0.8697,0.2473-0.7493c9.9267,2.6344,10.3291,14.9662,17.9659,21.0248
				c14.0608,11.1537,41.2318,12.2659,43.6899-10.2454C352.553,334.7715,352.695,334.803,352.6889,334.8966L352.6889,334.8966z"/>
		</g>
		<g>
			<path class="st0" d="M347.6776,343.4454c-4.0847,4.3879-12.3694,4.2765-17.8235,3.2433
				c-0.4823-0.0917-0.3286-0.7733,0.1396-0.7329c5.3023,0.4522,13.2348,1.234,17.4586-2.7064
				C347.5901,343.121,347.8111,343.3016,347.6776,343.4454L347.6776,343.4454z"/>
		</g>
		<g>
			<path class="st0" d="M325.123,345.0099c-6.5138-0.7179-12.3585-4.2135-17.1729-8.5272c-0.3404-0.3051,0.0451-0.9642,0.4612-0.7
				c5.456,3.4708,10.2308,7.595,16.7958,8.7871C325.4944,344.6221,325.406,345.0409,325.123,345.0099L325.123,345.0099z"/>
		</g>
		<g>
			<path class="st0" d="M346.6603,331.5927c-10.7376-10.9017-24.7937-9.1764-38.7144-9.2436
				c-0.4818-0.0023-0.5265-0.675-0.0503-0.7442c13.6819-1.9881,29.1816-1.203,39.2225,9.4627
				C347.4214,331.3892,346.9781,331.9147,346.6603,331.5927L346.6603,331.5927z"/>
		</g>
		<g>
			<path class="st0" d="M352.7707,332.1357c-3.8323-5.7329-7.6998-9.5426-13.5366-13.2249
				c-0.5082-0.3201-0.1654-1.0822,0.4099-0.8518c5.8702,2.3505,11.2811,7.9932,13.3481,13.9686
				C353.0386,332.1611,352.8487,332.2532,352.7707,332.1357L352.7707,332.1357z"/>
		</g>
		<g>
			<path class="st0" d="M334.0339,315.7404c-9.4373-1.0803-19.2427-2.2066-27.982,2.3754
				c-5.3916,2.8263-9.5369,6.5161-15.7494,7.2607c-0.3319,0.0399-0.4475-0.4978-0.1156-0.5811
				c7.8799-1.9655,13.5667-8.4111,21.4822-10.2839c7.4516-1.7629,15.0334-0.4179,22.4018,1.0333
				C334.1984,315.5698,334.1593,315.755,334.0339,315.7404L334.0339,315.7404z"/>
		</g>
		<g>
			<path class="st0" d="M344.2134,338.0063c-8.3485,0.6549-16.2462-0.0766-24.1675-2.9532
				c-4.0109-1.4568-7.3839-3.7152-11.1922-5.5561c-5.4151-2.618-11.3661-3.5479-17.1484-5.0658
				c-0.4711-0.1241-0.3347-0.7747,0.1401-0.7334c8.0232,0.6934,14.0462,2.4525,21.0154,6.4
				c9.6244,5.4518,20.3164,7.7252,31.3323,7.6109C344.3841,337.7064,344.4066,337.9918,344.2134,338.0063L344.2134,338.0063z"/>
		</g>
	</g>
</g>
</svg>
